<svg width="32" height="32" viewBox="0 0 32 32" fill="none" xmlns="http://www.w3.org/2000/svg">
<path d="M7.79463 16.03C8.33163 13.342 8.60063 12 9.48763 11.134C9.65157 10.9744 9.82888 10.8292 10.0176 10.7C11.0406 10 12.4106 10 15.1506 10H16.8536C19.5926 10 20.9616 10 21.9836 10.7C22.1736 10.8307 22.3503 10.9757 22.5136 11.135C23.4006 12 23.6706 13.343 24.2076 16.03C24.9786 19.886 25.3646 21.814 24.4766 23.18C24.316 23.4287 24.1293 23.6563 23.9166 23.863C22.7506 25 20.7856 25 16.8536 25H15.1506C11.2176 25 9.25163 25 8.08563 23.862C7.87468 23.6556 7.6872 23.4266 7.52663 23.179C6.63863 21.813 7.02463 19.885 7.79663 16.029L7.79463 16.03Z" stroke="white"/>
<path d="M13 10V9C13 8.20435 13.3161 7.44129 13.8787 6.87868C14.4413 6.31607 15.2044 6 16 6C16.7956 6 17.5587 6.31607 18.1213 6.87868C18.6839 7.44129 19 8.20435 19 9V10M13.17 19C13.3766 19.5855 13.7597 20.0926 14.2666 20.4512C14.7735 20.8099 15.3791 21.0025 16 21.0025C16.6209 21.0025 17.2265 20.8099 17.7334 20.4512C18.2403 20.0926 18.6234 19.5855 18.83 19" stroke="white" stroke-linecap="round"/>
</svg>
