<svg width="81" height="81" viewBox="0 0 81 81" fill="none" xmlns="http://www.w3.org/2000/svg">
<path d="M9.61972 70.4984H49.4869C52.3978 73.2828 56.3213 75.0547 60.751 75.0547C69.6104 75.0547 76.951 67.8406 76.951 58.8547C76.951 52.9062 73.7869 47.8438 68.9775 44.9328V11.2672C68.9775 10.5078 68.3447 9.875 67.5854 9.875H23.9213C23.9213 9.875 23.9213 9.875 23.7947 9.875C23.7947 9.875 23.7947 9.875 23.6682 9.875C23.6682 9.875 23.6682 9.875 23.5416 9.875C23.5416 9.875 23.5416 9.875 23.415 9.875C23.415 9.875 23.415 9.875 23.2885 9.875C23.2885 9.875 23.2885 9.875 23.1619 9.875C23.1619 9.875 23.1619 9.875 23.0353 9.875C23.0353 9.875 23.0353 9.875 22.9088 9.875C22.9088 9.875 22.9088 9.875 22.7822 9.875L8.60722 24.3031C8.60722 24.3031 8.60722 24.3031 8.48066 24.4297C8.48066 24.4297 8.48066 24.5562 8.3541 24.5562C8.3541 24.5562 8.3541 24.5562 8.3541 24.6828C8.3541 24.6828 8.3541 24.6828 8.3541 24.8094C8.3541 24.8094 8.3541 24.8094 8.3541 24.9359C8.3541 24.9359 8.3541 24.9359 8.3541 25.0625C8.3541 25.0625 8.3541 25.0625 8.3541 25.1891C8.3541 25.1891 8.3541 25.1891 8.3541 25.3156V25.4422V25.5688V69.3594C8.22754 69.8656 8.86035 70.4984 9.61972 70.4984ZM11.0119 67.7141V26.7078H24.5541V48.7297L28.351 46.0719L31.2619 48.7297L34.0463 45.9453L38.476 48.7297V26.7078H51.8916V45.4391C47.4619 48.35 44.551 53.2859 44.551 58.9813C44.551 62.1453 45.4369 65.1828 47.0822 67.7141H11.0119ZM53.9166 70.3719C53.1572 69.9922 52.5244 69.4859 51.8916 68.8531C51.5119 68.4734 51.1322 68.0938 50.7525 67.5875C48.7275 65.3094 47.4619 62.1453 47.4619 58.8547C47.4619 54.9313 49.2338 51.3875 51.8916 48.9828C52.7775 48.2234 53.6635 47.5906 54.8025 47.0844C56.5744 46.1984 58.5994 45.6922 60.751 45.6922C62.6494 45.6922 64.5478 46.0719 66.1932 46.8312C67.2057 47.3375 68.2182 47.8438 69.1041 48.6031C72.1416 51.0078 74.1666 54.8047 74.1666 58.9813C74.1666 66.3219 68.2182 72.2703 60.8775 72.2703C58.2197 72.2703 55.9416 71.5109 53.9166 70.3719ZM60.751 42.7812C58.5994 42.7812 56.5744 43.1609 54.8025 43.9203V25.8219L66.1932 14.3047V43.6672C64.4213 43.1609 62.6494 42.7812 60.751 42.7812ZM52.651 23.7969H40.1213L51.0057 12.6594H63.5354L52.651 23.7969ZM24.4275 12.6594H37.0838L25.8197 23.7969H13.1635L24.4275 12.6594Z" fill="#FFC700"/>
<path d="M67.0773 59.8606C66.9507 59.8606 66.8242 59.8606 66.6976 59.8606H64.4195H63.0273H61.6351L58.5976 56.1903L55.6867 52.8996C55.4335 52.6465 55.1804 52.52 54.9273 52.3934C54.5476 52.2668 54.0414 52.3934 53.6617 52.6465C53.0289 53.1528 53.0289 54.0387 53.5351 54.6715L54.9273 56.3168L59.8632 62.1387C59.9898 62.2653 60.1164 62.3918 60.3695 62.5184C60.6226 62.645 60.7492 62.645 61.0023 62.645H64.2929H66.8242C67.5835 62.645 68.2164 62.0122 68.2164 61.2528C68.2164 60.62 67.7101 59.9871 67.0773 59.8606Z" fill="white"/>
<path d="M38.8547 9.875L25.8187 23.7969L24.6797 26.7078V48.7297L28.35 46.1984L31.2609 48.7297L34.1719 46.0719L38.475 48.7297V26.7078L40.2469 23.7969L53.2828 9.875H38.8547Z" fill="white"/>
</svg>
