<svg width="20" height="20" viewBox="0 0 20 20" fill="none" xmlns="http://www.w3.org/2000/svg">
<path d="M10.0007 1.66406C12.759 1.66406 15.0007 3.88073 15.0007 6.6224C15.0007 10.3391 10.0007 15.8307 10.0007 15.8307C10.0007 15.8307 5.00065 10.3391 5.00065 6.6224C5.00065 3.88073 7.24232 1.66406 10.0007 1.66406ZM10.0007 4.9974C9.55862 4.9974 9.1347 5.17299 8.82214 5.48555C8.50958 5.79811 8.33398 6.22203 8.33398 6.66406C8.33398 7.10609 8.50958 7.53001 8.82214 7.84257C9.1347 8.15513 9.55862 8.33073 10.0007 8.33073C10.4427 8.33073 10.8666 8.15513 11.1792 7.84257C11.4917 7.53001 11.6673 7.10609 11.6673 6.66406C11.6673 6.22203 11.4917 5.79811 11.1792 5.48555C10.8666 5.17299 10.4427 4.9974 10.0007 4.9974ZM16.6673 15.8307C16.6673 17.6724 13.684 19.1641 10.0007 19.1641C6.31732 19.1641 3.33398 17.6724 3.33398 15.8307C3.33398 14.7557 4.35065 13.7974 5.92565 13.1891L6.45898 13.9474C5.55898 14.3224 5.00065 14.8391 5.00065 15.4141C5.00065 16.5641 7.24232 17.4974 10.0007 17.4974C12.759 17.4974 15.0007 16.5641 15.0007 15.4141C15.0007 14.8391 14.4423 14.3224 13.5423 13.9474L14.0757 13.1891C15.6507 13.7974 16.6673 14.7557 16.6673 15.8307Z" fill="white"/>
</svg>
