<svg width="24" height="24" viewBox="0 0 24 24" fill="none" xmlns="http://www.w3.org/2000/svg">
<path d="M13 22C13.818 22 14.6 21.67 16.163 21.01C20.054 19.366 22 18.543 22 17.16V7M13 22V11.355M13 22C12.66 22 12.354 21.943 12 21.828M4 7V11.5M19 12L17 13M8 4L18 9M16.674 9.691L19.595 8.278C21.198 7.502 22 7.114 22 6.5C22 5.886 21.198 5.498 19.595 4.722L16.675 3.309C14.87 2.436 13.97 2 13 2C12.03 2 11.129 2.436 9.326 3.309L6.405 4.722C4.802 5.498 4 5.886 4 6.5C4 7.114 4.802 7.502 6.405 8.278L9.325 9.691C11.13 10.564 12.03 11 13 11C13.97 11 14.871 10.564 16.674 9.691Z" stroke="#717171" stroke-linecap="round" stroke-linejoin="round"/>
<path d="M3.868 20.159L2 22M2.793 17.596C2.79339 18.0688 2.8869 18.5368 3.06818 18.9734C3.24946 19.4101 3.51497 19.8067 3.84954 20.1407C4.18411 20.4747 4.58119 20.7396 5.01811 20.9201C5.45503 21.1007 5.92324 21.1934 6.396 21.193C6.86884 21.1935 7.33716 21.1009 7.7742 20.9204C8.21124 20.7399 8.60843 20.4751 8.94311 20.1411C9.27778 19.807 9.54338 19.4104 9.72472 18.9737C9.90607 18.537 9.99961 18.0688 10 17.596C9.99948 17.1232 9.90584 16.6552 9.72444 16.2186C9.54303 15.7821 9.27742 15.3855 8.94276 15.0516C8.60809 14.7177 8.21094 14.4529 7.77397 14.2725C7.33699 14.0921 6.86876 13.9995 6.396 14C5.44139 13.9992 4.52555 14.3776 3.84989 15.0519C3.17422 15.7263 2.79406 16.6414 2.793 17.596Z" stroke="#717171" stroke-linecap="round"/>
</svg>
