<svg width="81" height="81" viewBox="0 0 81 81" fill="none" xmlns="http://www.w3.org/2000/svg">
<path d="M55.0543 61.1328H10.1246C7.59336 61.1328 5.56836 59.1078 5.56836 56.5766V31.5172C5.56836 28.9859 7.59336 26.9609 10.1246 26.9609H55.0543C57.5855 26.9609 59.6105 28.9859 59.6105 31.5172V56.45C59.6105 59.1078 57.5855 61.1328 55.0543 61.1328Z" fill="white"/>
<path d="M11.7695 30.3719V22.525C11.7695 19.9937 13.7945 17.9688 16.3258 17.9688H61.2555C63.7867 17.9688 65.8117 19.9937 65.8117 22.525V38.2188" stroke="white" stroke-width="2.601" stroke-miterlimit="10"/>
<path d="M55.1809 35.0547H5.56836V39.6109H55.1809V35.0547Z" fill="#010108"/>
<path d="M17.2133 52.0156H10.3789V56.1922H17.2133V52.0156Z" fill="#010108"/>
<path d="M26.9574 52.0156H20.123V56.1922H26.9574V52.0156Z" fill="#010108"/>
<path d="M36.8305 52.0156H29.9961V56.1922H36.8305V52.0156Z" fill="#010108"/>
<path d="M68.5973 63.2812H52.9035C50.3723 63.2812 48.2207 61.1297 48.2207 58.5984V50.8781C48.2207 47.5875 50.8785 44.9297 54.1691 44.9297H67.2051C70.4957 44.9297 73.1535 47.5875 73.1535 50.8781V58.5984C73.2801 61.1297 71.1285 63.2812 68.5973 63.2812Z" fill="#FFC700" stroke="#FFC700" stroke-width="3.1212" stroke-miterlimit="10"/>
<path d="M69.7371 40.1188V46.9531H67.0793C67.2059 46.7 67.3324 46.4469 67.3324 46.1937V40.7516C67.3324 38.3469 65.434 36.4484 63.0293 36.4484H58.3465C55.9418 36.4484 54.0434 38.3469 54.0434 40.7516V46.1937C54.0434 46.4469 54.1699 46.7 54.2965 46.9531H51.6387V40.1188C51.6387 36.575 54.5496 33.6641 58.0934 33.6641H63.1559C66.8262 33.6641 69.7371 36.575 69.7371 40.1188Z" fill="#FFC700" stroke="#FFC700" stroke-width="3.1212" stroke-miterlimit="10"/>
<path d="M58.5988 55.6871C58.4723 55.5606 58.4723 55.5606 58.4723 55.5606C57.966 55.0543 57.3332 54.4215 56.827 53.9153C56.3207 53.409 55.4348 53.409 54.9285 53.9153C54.4223 54.4215 54.4223 55.3075 54.9285 55.8137C55.8145 56.6996 56.8269 57.7121 57.7129 58.5981C58.3457 59.2309 59.1051 59.2309 59.7379 58.5981C61.2566 57.0793 62.902 55.434 64.4207 53.9153C65.1801 53.1559 65.9395 52.3965 66.6988 51.6371C67.2051 51.1309 67.2051 50.6246 67.0785 50.1184C66.6988 49.2325 65.5598 48.9793 64.8004 49.7387C63.4082 51.1309 62.016 52.5231 60.6238 53.9153C59.8645 54.4215 59.2316 55.0543 58.5988 55.6871Z" fill="#FFC700"/>
<path d="M58.5984 55.6887C59.2312 55.0559 59.8641 54.4231 60.4969 53.7903C61.8891 52.3981 63.2812 51.0059 64.6734 49.6137C65.4328 48.8543 66.5719 49.1075 66.9516 49.9934C67.2047 50.4996 67.0781 51.1325 66.5719 51.5121C65.8125 52.2715 65.0531 53.0309 64.2937 53.7903C62.775 55.309 61.1297 56.9543 59.6109 58.4731C58.9781 59.1059 58.2188 59.1059 57.5859 58.4731C56.7 57.5871 55.6875 56.5746 54.8016 55.6887C54.2953 55.1825 54.2953 54.2965 54.8016 53.7903C55.3078 53.284 56.1937 53.284 56.7 53.7903C57.2062 54.2965 57.8391 54.9293 58.3453 55.4356C58.4719 55.5621 58.4719 55.5621 58.5984 55.6887Z" fill="#FFC700"/>
<path d="M69.357 63.1562H53.6633C51.132 63.1562 48.9805 61.0047 48.9805 58.4734V50.7531C48.9805 47.4625 51.6383 44.8047 54.9289 44.8047H67.9648C71.2555 44.8047 73.9133 47.4625 73.9133 50.7531V58.4734C74.0398 61.1312 71.8883 63.1562 69.357 63.1562Z" fill="#FFC700"/>
<path d="M70.4969 40.1188V46.9531H67.8391C67.9656 46.7 68.0922 46.4469 68.0922 46.1937V40.7516C68.0922 38.3469 66.1938 36.4484 63.7891 36.4484H59.1062C56.7016 36.4484 54.8031 38.3469 54.8031 40.7516V46.1937C54.8031 46.4469 54.9297 46.7 55.0562 46.9531H52.3984V40.1188C52.3984 36.575 55.3094 33.6641 58.8531 33.6641H63.9156C67.5859 33.6641 70.4969 36.575 70.4969 40.1188Z" fill="#FFC700"/>
<path d="M59.3586 55.6871C59.232 55.5606 59.232 55.5606 59.232 55.5606C58.7258 55.0543 58.093 54.4215 57.5867 53.9153C57.0805 53.409 56.1945 53.409 55.6883 53.9153C55.182 54.4215 55.182 55.3075 55.6883 55.8137C56.5742 56.6996 57.5867 57.7121 58.4727 58.5981C59.1055 59.2309 59.8648 59.2309 60.4977 58.5981C62.0164 57.0793 63.6617 55.434 65.1805 53.9153C65.9398 53.1559 66.6992 52.3965 67.4586 51.6371C67.9648 51.1309 67.9648 50.6246 67.8383 50.1184C67.4586 49.2325 66.3195 48.9793 65.5602 49.7387C64.168 51.1309 62.7758 52.5231 61.3836 53.9153C60.6242 54.295 59.9914 54.9278 59.3586 55.6871Z" fill="#FFC700"/>
<path d="M59.3582 55.6887C59.991 55.0559 60.6238 54.4231 61.2566 53.7903C62.6488 52.3981 64.041 51.0059 65.4332 49.6137C66.1926 48.8543 67.3316 49.1075 67.7113 49.9934C67.9644 50.4996 67.8379 51.1325 67.3316 51.5121C66.5723 52.2715 65.8129 53.0309 65.0535 53.7903C63.5348 55.309 61.8895 56.9543 60.3707 58.4731C59.7379 59.1059 58.9785 59.1059 58.3457 58.4731C57.4598 57.5871 56.4473 56.5746 55.5613 55.6887C55.0551 55.1825 55.0551 54.2965 55.5613 53.7903C56.0676 53.284 56.9535 53.284 57.4598 53.7903C57.966 54.2965 58.5988 54.9293 59.1051 55.4356C59.2316 55.5621 59.2316 55.5621 59.3582 55.6887Z" fill="#010108"/>
</svg>
