<svg width="24" height="24" viewBox="0 0 24 24" fill="none" xmlns="http://www.w3.org/2000/svg">
<path d="M8.38394 2.47717C8.90904 2.31885 9.47252 2.34515 9.98059 2.5517C10.4887 2.75825 10.9107 3.13257 11.1763 3.61237L11.2651 3.79117L12.0595 5.55637C12.3002 6.09225 12.3782 6.68698 12.2839 7.26678C12.1896 7.84658 11.9272 8.38595 11.5291 8.81797L11.3695 8.97637L10.1179 10.144C9.89234 10.3576 10.0615 11.1844 10.8775 12.598C11.6119 13.87 12.2095 14.464 12.5035 14.4964H12.5551L12.6187 14.4844L15.0787 13.732C15.4094 13.6306 15.7622 13.6266 16.095 13.7204C16.4278 13.8143 16.7266 14.002 16.9555 14.2612L17.0647 14.3992L18.6931 16.6552C19.0123 17.0974 19.1713 17.6351 19.144 18.1797C19.1168 18.7243 18.9048 19.2435 18.5431 19.6516L18.3967 19.8028L17.7463 20.4196C17.1623 20.9727 16.4317 21.3464 15.6414 21.4964C14.8511 21.6464 14.0344 21.5663 13.2883 21.2656C10.9663 20.3296 8.85674 18.1912 6.94034 14.872C5.02034 11.5444 4.22234 8.64397 4.57874 6.15997C4.68659 5.40909 4.99579 4.70144 5.4735 4.11217C5.95121 3.52289 6.5796 3.074 7.29194 2.81317L7.52354 2.73637L8.38394 2.47717Z" fill="white"/>
</svg>
