<svg width="81" height="81" viewBox="0 0 81 81" fill="none" xmlns="http://www.w3.org/2000/svg">
<path d="M43.6636 11.2658L28.3496 21.8971C26.5777 23.1627 25.6918 25.3143 25.9449 27.4658L31.5136 63.5361C32.0199 66.7002 34.9308 68.7252 37.9683 68.3455L68.723 63.9158C71.7605 63.4096 73.9121 60.6252 73.5324 57.5877L68.9761 21.5174C68.723 19.3658 67.2043 17.594 65.1793 16.8346L48.2199 10.633C46.7011 10.1268 44.9293 10.3799 43.6636 11.2658Z" fill="#F4F3F1"/>
<path d="M34.5515 10.7609L16.1999 17.0891C14.0484 17.8484 12.5296 19.7469 12.2765 21.8984L7.46713 59.4875C7.08744 62.7781 9.36557 65.6891 12.5296 66.1953L44.5499 70.625C47.714 71.0047 50.7515 68.8531 51.2578 65.6891L56.9531 28.2266C57.3328 26.075 56.3203 23.7969 54.5484 22.5312L39.3609 11.5203C37.9687 10.5078 36.1968 10.2547 34.5515 10.7609Z" fill="#FFC700" stroke="#010108" stroke-width="3.1359" stroke-miterlimit="10"/>
<path d="M35.4375 25.1875C37.185 25.1875 38.6016 23.7709 38.6016 22.0234C38.6016 20.276 37.185 18.8594 35.4375 18.8594C33.69 18.8594 32.2734 20.276 32.2734 22.0234C32.2734 23.7709 33.69 25.1875 35.4375 25.1875Z" fill="#010108" stroke="#FFC700" stroke-width="1.5086" stroke-miterlimit="10"/>
<path d="M28.9844 48.223C31.0094 46.198 32.9079 44.173 34.9329 42.2746C37.211 39.9964 39.4891 37.7183 41.7672 35.4402C43.0329 34.1746 44.425 34.048 45.4375 35.1871C46.45 36.1996 46.45 37.5917 45.1844 38.8574C40.5016 43.5402 35.8188 48.3496 31.0094 53.0324C29.7438 54.298 28.4782 54.298 27.086 53.0324C25.3141 51.2605 23.5422 49.4886 21.7704 47.7167C20.5047 46.4511 20.5047 45.0589 21.6438 44.0464C22.6563 43.0339 24.0485 43.1605 25.1875 44.2996C26.4532 45.5652 27.7188 46.8308 28.9844 48.223Z" fill="#010108"/>
</svg>
