<svg width="81" height="81" viewBox="0 0 81 81" fill="none" xmlns="http://www.w3.org/2000/svg">
<path d="M12.5293 49.3609C14.5543 49.3609 16.1996 49.2344 17.8449 49.3609C18.2246 49.3609 18.8574 49.9938 19.1105 50.5C22.4012 57.0813 27.4637 61.3844 34.5512 63.4094C45.4355 66.3203 57.0793 61.1313 61.8887 50.8797C62.3949 49.7406 63.0277 49.4875 64.1668 49.4875C65.559 49.6141 66.8246 49.4875 68.5965 49.4875C65.9387 52.6516 66.8246 56.1953 66.6981 59.6125C66.5715 63.5359 63.6605 66.5734 59.7371 66.7C58.4715 66.7 57.2059 66.8266 56.0668 66.7C52.9027 66.4469 50.3715 67.5859 48.3465 69.8641C47.4605 70.8766 46.5746 71.7625 45.5621 72.6484C42.6512 75.3063 38.6012 75.1797 35.6902 72.6484C34.4246 71.5094 33.2855 70.2437 32.0199 68.9781C30.5012 67.4594 28.6027 66.7 26.4512 66.7C24.6793 66.7 23.034 66.7 21.2621 66.7C17.5918 66.5734 14.5543 63.5359 14.5543 59.8656C14.5543 58.7266 14.5543 57.4609 14.5543 56.3219C14.5543 53.7906 14.3012 51.5125 12.5293 49.3609Z" fill="#FFC700"/>
<path d="M12.5293 31.6383C14.3012 29.3602 14.5543 27.082 14.4277 24.6773C14.4277 23.6648 14.4277 22.6523 14.4277 21.6398C14.4277 17.4633 17.4652 14.4258 21.6418 14.4258C23.1605 14.4258 24.6793 14.4258 26.198 14.4258C28.4762 14.4258 30.3746 13.6664 32.0199 12.0211C33.159 10.882 34.298 9.74297 35.4371 8.60391C38.348 5.81953 42.5246 5.81953 45.4356 8.60391C46.5746 9.74297 47.7137 10.882 48.8527 12.0211C50.498 13.6664 52.3965 14.4258 54.6746 14.4258C56.3199 14.4258 57.9652 14.4258 59.484 14.4258C63.2809 14.5523 66.3184 17.4633 66.4449 21.3867C66.4449 22.2727 66.4449 23.1586 66.4449 23.918C66.4449 26.5758 66.3184 29.107 68.4699 31.6383C66.3184 31.6383 64.673 31.6383 62.9012 31.6383C62.5215 31.6383 62.1418 31.132 62.0152 30.7523C58.3449 23.2852 52.523 18.6023 44.423 17.2102C34.298 15.4383 23.9199 20.5008 19.2371 30.3727C18.7309 31.3852 18.2246 31.7648 17.0855 31.7648C15.6934 31.5117 14.3012 31.6383 12.5293 31.6383Z" fill="#FFC700"/>
<path d="M59.4844 46.9578C60.8766 42.6547 60.8766 38.3516 59.4844 33.9219C63.1547 33.9219 66.5719 33.9219 69.9891 33.9219C71.6344 33.9219 73.2797 33.9219 74.925 33.9219C76.6969 33.9219 77.3297 34.9344 76.3172 36.5797C75.6844 37.5922 74.925 38.4781 74.4187 39.6172C74.1656 40.25 74.1656 41.1359 74.4187 41.6422C74.925 42.7813 75.8109 43.6672 76.3172 44.8063C77.0766 46.0719 76.5703 47.0844 75.1781 47.0844C69.9891 47.0844 64.8 47.0844 59.6109 47.0844C59.7375 47.0844 59.7375 46.9578 59.4844 46.9578Z" fill="#FFC700"/>
<path d="M21.5155 33.9219C20.1233 38.3516 20.1233 42.6547 21.5155 47.0844C18.8577 47.0844 16.453 47.0844 13.9218 47.0844C11.264 47.0844 8.60614 47.0844 5.94833 47.0844C4.17645 47.0844 3.54364 46.0719 4.55614 44.5531C5.06239 43.5406 5.6952 42.5281 6.32802 41.6422C6.83427 40.8828 6.83427 40.1234 6.32802 39.2375C5.56864 38.225 4.93583 37.2125 4.30302 36.0734C3.6702 34.9344 4.17645 33.9219 5.31552 33.9219C10.7577 33.9219 16.0733 33.9219 21.5155 33.9219Z" fill="#FFC700"/>
<path d="M35.6918 44.8C37.8434 42.6484 39.8684 40.4969 41.8934 38.4719C44.2981 36.0672 46.7028 33.6625 49.1074 31.2578C50.3731 29.9922 51.8918 29.8656 53.0309 30.8781C54.17 32.0172 54.0434 33.4094 52.7778 34.8016C47.8418 39.8641 42.7793 44.8 37.7168 49.8625C36.3246 51.2547 34.9324 51.2547 33.5403 49.8625C31.6418 47.9641 29.7434 46.0656 27.8449 44.1672C26.5793 42.9016 26.4528 41.3828 27.7184 40.2437C28.8574 39.2312 30.2496 39.3578 31.5153 40.4969C33.034 41.8891 34.2996 43.2813 35.6918 44.8Z" fill="white"/>
</svg>
