<svg width="81" height="81" viewBox="0 0 81 81" fill="none" xmlns="http://www.w3.org/2000/svg">
<path d="M65.5602 48.215C65.8133 46.6962 66.3195 45.304 66.4461 43.9118C67.5852 33.5337 63.9148 25.1806 55.0555 19.4853C40.7539 10.2462 21.643 17.84 17.593 34.4197C14.0492 48.7212 23.4148 62.0103 36.5773 64.7947C36.957 64.9212 37.4633 64.9212 37.843 65.0478C38.6023 65.3009 39.1086 65.1743 39.7414 64.5415C40.8805 63.4025 42.7789 63.529 43.918 64.7947C45.057 65.9337 44.9305 67.9587 43.7914 68.9712C42.6523 70.1103 40.6273 70.2368 39.4883 68.9712C38.982 68.3384 38.3492 68.2118 37.5898 68.0853C26.5789 66.1868 19.1117 59.9853 15.1883 49.4806C14.8086 48.5947 14.4289 48.215 13.4164 48.215C11.8977 48.3415 10.2523 48.215 8.73359 48.215C7.34141 48.215 6.58203 47.4556 6.58203 45.9368C6.58203 42.2665 6.58203 38.7228 6.58203 35.0525C6.58203 33.4072 7.34141 32.6478 8.98672 32.6478C10.2523 32.6478 11.3914 32.6478 12.657 32.6478C13.4164 32.6478 13.7961 32.3947 13.9227 31.7618C16.2008 24.5478 20.757 18.979 27.3383 15.1822C43.2852 6.06966 63.6617 14.1697 69.1039 31.7618C69.357 32.5212 69.6102 32.7743 70.4961 32.7743C71.7617 32.6478 73.0273 32.7743 74.293 32.7743C75.6852 32.7743 76.4445 33.5337 76.4445 34.9259C76.4445 38.5962 76.4445 42.3931 76.4445 46.0634C76.4445 47.2025 75.8117 48.0884 74.6727 48.0884C71.8883 48.215 68.7242 48.215 65.5602 48.215Z" fill="#FFC700"/>
<path d="M59.1047 52.1375C61.2563 48.8469 62.3953 45.05 62.3953 40.8734C62.3953 29.4828 53.1563 20.1172 41.6391 20.1172C30.1219 20.1172 20.8828 29.3562 20.8828 40.8734C20.8828 52.3906 30.1219 61.6297 41.6391 61.6297C45.8156 61.6297 49.6125 60.3641 52.9031 58.3391L62.3953 61.6297L59.1047 52.1375Z" fill="white"/>
<path d="M35.1848 42.7719C36.373 42.7719 37.3363 41.8086 37.3363 40.6203C37.3363 39.432 36.373 38.4688 35.1848 38.4688C33.9965 38.4688 33.0332 39.432 33.0332 40.6203C33.0332 41.8086 33.9965 42.7719 35.1848 42.7719Z" fill="#010108"/>
<path d="M41.6398 42.7719C42.8281 42.7719 43.7914 41.8086 43.7914 40.6203C43.7914 39.432 42.8281 38.4688 41.6398 38.4688C40.4516 38.4688 39.4883 39.432 39.4883 40.6203C39.4883 41.8086 40.4516 42.7719 41.6398 42.7719Z" fill="#010108"/>
<path d="M48.0949 42.7719C49.2832 42.7719 50.2465 41.8086 50.2465 40.6203C50.2465 39.432 49.2832 38.4688 48.0949 38.4688C46.9066 38.4688 45.9434 39.432 45.9434 40.6203C45.9434 41.8086 46.9066 42.7719 48.0949 42.7719Z" fill="#010108"/>
</svg>
