<svg width="20" height="20" viewBox="0 0 20 20" fill="none" xmlns="http://www.w3.org/2000/svg">
<path fill-rule="evenodd" clip-rule="evenodd" d="M10.0007 2.1901C7.92865 2.1901 5.94151 3.0132 4.47638 4.47833C3.01125 5.94346 2.18815 7.9306 2.18815 10.0026C2.18815 12.0746 3.01125 14.0617 4.47638 15.5269C5.94151 16.992 7.92865 17.8151 10.0007 17.8151C12.0727 17.8151 14.0598 16.992 15.5249 15.5269C16.9901 14.0617 17.8132 12.0746 17.8132 10.0026C17.8132 7.9306 16.9901 5.94346 15.5249 4.47833C14.0598 3.0132 12.0727 2.1901 10.0007 2.1901ZM1.14648 10.0026C1.14648 5.1126 5.11065 1.14844 10.0007 1.14844C14.8907 1.14844 18.8548 5.1126 18.8548 10.0026C18.8548 14.8926 14.8907 18.8568 10.0007 18.8568C5.11065 18.8568 1.14648 14.8926 1.14648 10.0026Z" fill="white"/>
<path fill-rule="evenodd" clip-rule="evenodd" d="M10.0013 18.3385C14.6038 18.3385 18.3346 14.6077 18.3346 10.0052C18.3346 5.40271 14.6038 1.67188 10.0013 1.67188C5.3988 1.67188 1.66797 5.40271 1.66797 10.0052C1.66797 14.6077 5.3988 18.3385 10.0013 18.3385ZM13.953 7.21271L12.988 13.3919C12.9747 13.4771 12.9404 13.5577 12.8883 13.6264C12.8362 13.6951 12.7678 13.7498 12.6894 13.7856C12.6109 13.8214 12.5247 13.8371 12.4387 13.8313C12.3526 13.8256 12.2693 13.7986 12.1963 13.7527L8.96463 11.7277C8.89751 11.6856 8.84087 11.6287 8.79904 11.5614C8.75721 11.4941 8.73129 11.4182 8.72326 11.3393C8.71522 11.2605 8.72528 11.1809 8.75267 11.1065C8.78005 11.0321 8.82405 10.965 8.8813 10.9102L11.563 8.33854C11.5921 8.31021 11.5563 8.26354 11.5213 8.28438L7.63463 10.6119C7.4036 10.7516 7.1287 10.8001 6.8638 10.7477L5.45547 10.4752C4.9488 10.3769 4.87797 9.68021 5.35547 9.48271L12.8838 6.37021C13.0119 6.31751 13.1516 6.29979 13.2888 6.31886C13.426 6.33792 13.5556 6.39309 13.6645 6.47871C13.7733 6.56433 13.8575 6.67734 13.9083 6.80616C13.9592 6.93498 13.9748 7.07499 13.9538 7.21187" fill="white"/>
</svg>
