<svg width="32" height="32" viewBox="0 0 32 32" fill="none" xmlns="http://www.w3.org/2000/svg">
<path d="M17.3688 2.66406C18.8688 2.66806 19.6302 2.67606 20.2875 2.69473L20.5462 2.70406C20.8448 2.71473 21.1395 2.72806 21.4955 2.74406C22.9142 2.81073 23.8822 3.03473 24.7315 3.36406C25.6115 3.70273 26.3528 4.1614 27.0942 4.9014C27.7724 5.56771 28.2971 6.37403 28.6315 7.26406C28.9608 8.1134 29.1848 9.0814 29.2515 10.5014C29.2675 10.8561 29.2808 11.1507 29.2915 11.4507L29.2995 11.7094C29.3195 12.3654 29.3275 13.1267 29.3302 14.6267L29.3315 15.6214V17.3681C29.3347 18.3406 29.3245 19.3131 29.3008 20.2854L29.2928 20.5441C29.2822 20.8441 29.2688 21.1387 29.2528 21.4934C29.1862 22.9134 28.9595 23.8801 28.6315 24.7307C28.2971 25.6208 27.7724 26.4271 27.0942 27.0934C26.4278 27.7717 25.6215 28.2963 24.7315 28.6307C23.8822 28.9601 22.9142 29.1841 21.4955 29.2507L20.5462 29.2907L20.2875 29.2987C19.6302 29.3174 18.8688 29.3267 17.3688 29.3294L16.3742 29.3307H14.6288C13.6558 29.3342 12.6829 29.3239 11.7102 29.3001L11.4515 29.2921C11.135 29.2801 10.8185 29.2663 10.5022 29.2507C9.08349 29.1841 8.11549 28.9601 7.26482 28.6307C6.37526 28.2961 5.56941 27.7715 4.90349 27.0934C4.22475 26.4272 3.69963 25.6209 3.36482 24.7307C3.03549 23.8814 2.81149 22.9134 2.74482 21.4934L2.70482 20.5441L2.69815 20.2854C2.67358 19.3132 2.66246 18.3406 2.66482 17.3681V14.6267C2.66113 13.6542 2.67091 12.6817 2.69415 11.7094L2.70349 11.4507C2.71415 11.1507 2.72749 10.8561 2.74349 10.5014C2.81015 9.0814 3.03415 8.11473 3.36349 7.26406C3.69908 6.37366 4.22512 5.56731 4.90482 4.9014C5.57036 4.22346 6.37574 3.69883 7.26482 3.36406C8.11549 3.03473 9.08215 2.81073 10.5022 2.74406C10.8568 2.72806 11.1528 2.71473 11.4515 2.70406L11.7102 2.69606C12.6824 2.67237 13.6549 2.66215 14.6275 2.6654L17.3688 2.66406ZM15.9982 9.33073C14.23 9.33073 12.5344 10.0331 11.2841 11.2834C10.0339 12.5336 9.33149 14.2293 9.33149 15.9974C9.33149 17.7655 10.0339 19.4612 11.2841 20.7114C12.5344 21.9617 14.23 22.6641 15.9982 22.6641C17.7663 22.6641 19.462 21.9617 20.7122 20.7114C21.9624 19.4612 22.6648 17.7655 22.6648 15.9974C22.6648 14.2293 21.9624 12.5336 20.7122 11.2834C19.462 10.0331 17.7663 9.33073 15.9982 9.33073ZM15.9982 11.9974C16.5234 11.9973 17.0436 12.1007 17.5289 12.3016C18.0143 12.5026 18.4553 12.7971 18.8268 13.1685C19.1983 13.5399 19.493 13.9808 19.6941 14.466C19.8952 14.9513 19.9987 15.4714 19.9988 15.9967C19.9989 16.522 19.8955 17.0422 19.6946 17.5275C19.4937 18.0129 19.1991 18.4539 18.8277 18.8254C18.4563 19.1968 18.0154 19.4916 17.5302 19.6927C17.0449 19.8938 16.5248 19.9973 15.9995 19.9974C14.9386 19.9974 13.9212 19.576 13.1711 18.8258C12.4209 18.0757 11.9995 17.0583 11.9995 15.9974C11.9995 14.9365 12.4209 13.9191 13.1711 13.169C13.9212 12.4188 14.9386 11.9974 15.9995 11.9974M22.9995 7.33073C22.5575 7.33073 22.1335 7.50632 21.821 7.81888C21.5084 8.13145 21.3328 8.55537 21.3328 8.9974C21.3328 9.43942 21.5084 9.86335 21.821 10.1759C22.1335 10.4885 22.5575 10.6641 22.9995 10.6641C23.4415 10.6641 23.8654 10.4885 24.178 10.1759C24.4906 9.86335 24.6662 9.43942 24.6662 8.9974C24.6662 8.55537 24.4906 8.13145 24.178 7.81888C23.8654 7.50632 23.4415 7.33073 22.9995 7.33073Z" fill="url(#paint0_linear_264_6921)"/>
<defs>
<linearGradient id="paint0_linear_264_6921" x1="15.9981" y1="2.66406" x2="15.9981" y2="29.3314" gradientUnits="userSpaceOnUse">
<stop stop-color="#CA0003"/>
<stop offset="1" stop-color="#CA02AC"/>
</linearGradient>
</defs>
</svg>
