<svg width="24" height="24" viewBox="0 0 24 24" fill="none" xmlns="http://www.w3.org/2000/svg">
<path d="M12.0039 2C15.3139 2 18.0039 4.66 18.0039 7.95C18.0039 12.41 12.0039 19 12.0039 19C12.0039 19 6.00391 12.41 6.00391 7.95C6.00391 4.66 8.69391 2 12.0039 2ZM12.0039 6C11.4735 6 10.9648 6.21071 10.5897 6.58579C10.2146 6.96086 10.0039 7.46957 10.0039 8C10.0039 8.53043 10.2146 9.03914 10.5897 9.41421C10.9648 9.78929 11.4735 10 12.0039 10C12.5343 10 13.043 9.78929 13.4181 9.41421C13.7932 9.03914 14.0039 8.53043 14.0039 8C14.0039 7.46957 13.7932 6.96086 13.4181 6.58579C13.043 6.21071 12.5343 6 12.0039 6ZM20.0039 19C20.0039 21.21 16.4239 23 12.0039 23C7.58391 23 4.00391 21.21 4.00391 19C4.00391 17.71 5.22391 16.56 7.11391 15.83L7.75391 16.74C6.67391 17.19 6.00391 17.81 6.00391 18.5C6.00391 19.88 8.69391 21 12.0039 21C15.3139 21 18.0039 19.88 18.0039 18.5C18.0039 17.81 17.3339 17.19 16.2539 16.74L16.8939 15.83C18.7839 16.56 20.0039 17.71 20.0039 19Z" fill="#004DCC"/>
</svg>
