<svg width="32" height="32" viewBox="0 0 32 32" fill="none" xmlns="http://www.w3.org/2000/svg">
<path fill-rule="evenodd" clip-rule="evenodd" d="M16.0026 3.5026C12.6874 3.5026 9.50797 4.81956 7.16377 7.16377C4.81956 9.50797 3.5026 12.6874 3.5026 16.0026C3.5026 19.3178 4.81956 22.4972 7.16377 24.8414C9.50797 27.1856 12.6874 28.5026 16.0026 28.5026C19.3178 28.5026 22.4972 27.1856 24.8414 24.8414C27.1856 22.4972 28.5026 19.3178 28.5026 16.0026C28.5026 12.6874 27.1856 9.50797 24.8414 7.16377C22.4972 4.81956 19.3178 3.5026 16.0026 3.5026ZM1.83594 16.0026C1.83594 8.1786 8.1786 1.83594 16.0026 1.83594C23.8266 1.83594 30.1693 8.1786 30.1693 16.0026C30.1693 23.8266 23.8266 30.1693 16.0026 30.1693C8.1786 30.1693 1.83594 23.8266 1.83594 16.0026Z" fill="#50A8FF"/>
<path fill-rule="evenodd" clip-rule="evenodd" d="M16.0052 29.3385C23.3692 29.3385 29.3385 23.3692 29.3385 16.0052C29.3385 8.64121 23.3692 2.67188 16.0052 2.67188C8.64121 2.67188 2.67188 8.64121 2.67188 16.0052C2.67188 23.3692 8.64121 29.3385 16.0052 29.3385ZM22.3279 11.5372L20.7839 21.4239C20.7626 21.5602 20.7078 21.6892 20.6245 21.7991C20.5411 21.9091 20.4317 21.9966 20.3061 22.0538C20.1805 22.1111 20.0427 22.1362 19.905 22.127C19.7673 22.1178 19.6341 22.0746 19.5172 22.0012L14.3465 18.7612C14.2391 18.6938 14.1485 18.6028 14.0816 18.4951C14.0147 18.3875 13.9732 18.2659 13.9603 18.1398C13.9475 18.0136 13.9636 17.8862 14.0074 17.7673C14.0512 17.6483 14.1216 17.5409 14.2132 17.4532L18.5039 13.3385C18.5505 13.2932 18.4932 13.2185 18.4372 13.2519L12.2185 16.9759C11.8489 17.1995 11.409 17.277 10.9852 17.1932L8.73187 16.7572C7.92121 16.5999 7.80788 15.4852 8.57188 15.1692L20.6172 10.1892C20.8221 10.1049 21.0458 10.0765 21.2652 10.107C21.4847 10.1376 21.6921 10.2258 21.8663 10.3628C22.0405 10.4998 22.1751 10.6806 22.2564 10.8867C22.3378 11.0928 22.3629 11.3169 22.3292 11.5359" fill="#50A8FF"/>
</svg>
